<svg xmlns="http://www.w3.org/2000/svg" width="4822.7" height="1198.7" version="1.0" viewBox="0 0 3617 899"><path fill="#080808" d="M1294.5 50.1c-137.3 8.2-226.6 71.5-249.9 176.9a333 333 0 0 0-.1 128.6c25.2 124.7 128.4 197.5 279.9 197.4 133.4-.1 226.5-40.9 264.5-116 12.8-25.3 20.1-55 20.1-82.3V346h-187.7l-1.2 4.2c-9.1 30.3-40 59.1-73.1 68a129 129 0 0 1-53.5-.6c-44.1-13.3-71.5-50.9-76.6-105-5.7-61 27.5-116.4 77.5-129.5 51.1-13.4 98.5 10.4 122.2 61.4l4.9 10.5H1607v-6.3c0-43.8-18.3-91.5-47.1-123-49.6-54.3-148.9-82.5-265.4-75.6m320.5 75.4V192h170l.2 180.2.3 180.3h172l.3-180.3.2-180.2h183l-.2-66.3-.3-66.2-262.7-.3L1615 59zM2155 305v246h172V407h64.6c72.1 0 68.6-.3 74.4 7.1 10.1 12.7 16.4 35.4 27.9 100.9l6.6 37.5 89.3.3c84.8.2 89.3.1 88.8-1.5-3.9-12.5-9.1-41.3-15.1-83.3-13.1-91.2-23.5-125.4-46.8-153.3a22 22 0 0 1-3.6-5l6.9-3.5c48.1-23.3 65.9-122.9 33.5-187.2a103 103 0 0 0-87.3-59c-6.8-.6-83.6-1-210.9-1H2155zm279.4-131c37.6 6.1 51.2 67.7 21.4 96.7-11.1 10.8-14.6 11.3-77.5 11.3H2327v-53.8c0-29.6.3-54.2.7-54.5 1-1.1 100.1-.8 106.7.3M3210 306v247h406V416h-243V59h-163zM246 60.7C111.6 67.8 20.1 116.8 4 190.3a150 150 0 0 0 5.9 75.6c16.3 44.6 57.3 71.9 126.1 84 23.5 4.2 45.1 6.2 98.5 9.1a1205 1205 0 0 1 49.5 3.5c40.3 4.6 61.6 18.3 61.4 39.5-.1 22.8-26.9 37-69.4 37-40.8-.1-63.1-11.6-68-35.3l-1.1-5.7H.7l.7 8.2C8 485.4 81.1 535.2 212 549.7c23.6 2.6 95.5 2.6 121 0 44.5-4.5 90.2-13.5 116.5-22.8C513.8 504.3 551 452.6 550.9 386c0-69.8-45.6-109.9-145.2-127.9-22.1-4-51.6-7.4-100.2-11.6-55.1-4.7-67.5-7-81-15-11.9-7-16.9-15.2-16.9-28-.1-15.8 9.4-25.2 30.4-29.9 17.6-4 53.9-3.9 70.2.3 19.5 5 32.1 17.2 36.2 34.9l1.3 5.7 102.8.3 102.8.2-.6-10.7c-3.9-77-104.2-134.6-249.2-143.3-15.5-.9-41.7-1.1-55.5-.3m320 244.8V551h462V416H729v-56h177V251H729v-55l149.3-.2 149.2-.3.3-67.8.2-67.7H566zm2231-80.9-41.5 27.2a1115 1115 0 0 0-62.7 43.6l-7.8 6.1v23.7c0 26.5 1.3 39.2 6 57.2 29.6 114.7 158.6 187.5 295.2 166.6 95.8-14.7 172.2-73.6 198.6-153.1 7.8-23.7 10.2-40.3 10.2-71.9v-22.6l-7.6-5.9c-11.3-9-32.2-23.2-59.2-40.5l-45.8-29.3a320 320 0 0 0-22-13.4c-.2.2.5 5.7 1.6 12.2 11.5 67.1-4.1 121.6-42.6 149.1-30.5 21.8-84.6 27.7-126.4 13.8-46.5-15.5-71.8-53-77.1-114.4a272 272 0 0 1 2.7-59.3c.3-1.5.2-2.7-.3-2.6-.4 0-10 6.1-21.3 13.5m-982.2 451.5c-24.8 3.2-42.6 21-43.6 43.5-.7 14.3 3.8 24 19.1 41.6 3.7 4.2 6.7 7.9 6.7 8.2s-2.1 2-4.7 3.7a102 102 0 0 0-30.9 35.4 64 64 0 0 0 .6 53.5c19.2 38.1 76 48.9 115.7 21.9 2.6-1.8 8.7-7 13.4-11.6l8.6-8.3 15.9 15a364 364 0 0 0 16.4 15c1 0 18.1-16.2 17.8-16.9a644 644 0 0 0-18-17.4l-17.7-16.7 4.1-8.6a160 160 0 0 0 11.8-56.1V775h-24v4.5c0 16.1-6.9 48.4-10.1 47.3-1-.4-56-52.1-55.6-52.4l6.7-5c23.2-16.9 32.2-30 32.1-47-.1-24.3-18-42.5-45.5-46.3a50 50 0 0 0-18.8 0m22.7 24.8c17.3 7.7 19.8 28.9 5.1 43.1a92 92 0 0 1-20.2 14c-2 0-16.1-13.8-19.5-19.1-8.7-13.6-6.2-31.1 5.2-36.9a38 38 0 0 1 29.4-1.1m11.4 116 32.1 30.3-3.1 3.9c-13.1 16.6-33.6 26.3-51.4 24.4-41.8-4.4-58-43.4-30.4-73 6.1-6.5 18.7-16.7 20-16.2.4.1 15.1 13.9 32.8 30.6M89.7 696c-33.8 6-55 26.1-56.5 53.1-.8 16.7 3 27.1 13.8 37.2 11.3 10.7 24 15.9 56.9 23.3 43.9 9.8 53.1 15 53.1 29.8 0 9.6-7 17.8-19.5 22.6a91 91 0 0 1-38.8 1.6c-17-4-30.5-16.2-34.1-30.9L64 830H25.9l.6 3.7Q36 890.2 98.4 898c52.1 6.6 93.7-18.1 96.3-57 1.8-28.6-14.2-47.8-48.7-58.5-4.7-1.4-17.7-4.6-29-7.1-37.2-8.1-46-12.7-46-24.3 0-14.6 12.5-21.6 38.5-21.6 18.5.1 23.8 1.5 31.8 8.6a42 42 0 0 1 10.7 17.6c0 1 3.8 1.3 19 1.3h19.1l-.6-3.8c-4.7-27.7-23.7-47.6-53-55.3-8.9-2.4-37.7-3.5-46.8-1.9m451.8-.3a90 90 0 0 0-76.1 68.9 164 164 0 0 0-2 54.8c8.1 47.7 41.1 76.9 89.3 79.3 46.5 2.3 81.4-20.4 90.7-58.8 2.7-10.9 4.4-10-18-9.7l-19.6.3-1.8 5.7c-6 19.5-21.5 29.8-45 29.8-28.5 0-48-15.9-55.6-45.5-2.8-10.6-2.5-38.1.4-48.8q9.7-34.8 40.9-42.3c8.7-2 25.4-1.4 33.3 1.2a41 41 0 0 1 25.7 24.5l1.8 4.9h39.3l-.5-2.3c-6.3-28.2-27.8-50.2-57.9-59.3a72 72 0 0 0-25.4-2.9c-9.1-.2-17.8-.1-19.5.2m1571.5 1.2c-47 10.4-74 46.8-74 100.1 0 52.6 26.5 88.9 72.5 99.6 12.3 2.9 38.9 2.6 51-.5 32.2-8.3 55.3-32.2 59.1-61.2l.7-4.9h-39.2l-1.2 4.2c-5.5 20.6-21.7 31.8-45.9 31.8a52 52 0 0 1-39.5-15.4c-25-25.5-24.3-85.3 1.4-108.8 24-21.9 68.2-17.3 81 8.4 1.7 3.4 3.1 6.9 3.1 8 0 1.7 1.2 1.8 20 1.8 11.1 0 20-.4 20-.9 0-2.7-4.7-15.5-7.7-21.1a83 83 0 0 0-51.9-40.1 141 141 0 0 0-49.4-1m237.5-.5c-44.7 8.7-74.9 43.3-78.4 89.9-4 54.6 23.4 96.5 71.5 109.4a135 135 0 0 0 55.9 0 95 95 0 0 0 69.8-75.3c11-58.5-17.3-108.1-69.8-122.4-10.2-2.8-38-3.7-49-1.6m37 33.1c20.8 5.3 36 21.4 42.2 44.5a142 142 0 0 1 0 46c-8.1 29.3-29.2 46-58.2 46-36.8 0-60.3-27-60.5-69.2-.1-34.5 17.5-60.6 45.5-67.4a90 90 0 0 1 31 .1m887.1-33c-46.6 9.6-76 44.8-78.3 93.6-3 63.9 38.2 108.9 99.7 108.9 58.8 0 99.9-42.1 100-102.5.1-49.4-27.3-86.4-72.8-98.7a161 161 0 0 0-48.6-1.3m37.2 33a57 57 0 0 1 36.5 29.5 91 91 0 0 1 0 75.9c-20.7 41.8-84.6 41.7-104.7-.2a90 90 0 0 1 .1-75.6c11.8-23.9 40-36.2 68.1-29.6M254 797v99h159v-34H292v-52h109v-33H292v-45h116v-34H254zm450.2-27.8c.4 70 .4 71.5 2.6 79.3 9.3 33.6 31.3 48.6 73.8 50.2 46.4 1.8 73.5-12.2 84-43.4 5-14.8 5.4-21.6 5.4-92.1V698h-38.9l-.3 67.7c-.3 67.3-.3 67.8-2.6 74.5-6.5 19.4-18 25.6-45.3 24.6-22-.9-31.1-6.9-36.8-24.1-3.5-10.4-4.1-22.9-4.1-84V698h-38.1zM938 796.9V896h39v-80h22.8c31 0 37.7 2 48.6 14.2 4.8 5.3 5.8 7.6 19.7 45.5l7.4 20.3h20.8c11.4 0 20.7-.2 20.7-.5 0-1.7-22.9-60.5-26.3-67.4-2.7-5.7-6-10.4-10.4-15-3.5-3.6-5.9-6.7-5.5-6.9a72 72 0 0 0 19.1-13.7 56.7 56.7 0 0 0-14.6-86.3c-14.3-7.5-14.8-7.6-81.5-8l-59.8-.3zm106.9-65.8c16.1 2.8 23.1 10.3 23.1 24.9 0 11.8-4.7 19.1-14.8 23.2-5.5 2.2-7.1 2.3-40.9 2.6l-35.3.3V730h30.7c18.2 0 33.3.5 37.2 1.1M1174 797v99h39V698h-39zm91-82v17h64v164h39V732h65v-34h-168zm201.2-13.8 41.1 57.1 38.7 53.8V896h39v-83.1l40.3-56.2 41.1-57.5c.6-.9-4.2-1.2-22.6-1.2h-23.3l-27 39.6a2057 2057 0 0 1-27.5 39.9c-.3.1-12.8-17.7-27.8-39.6l-27.3-39.9h-47.1zM2530 797v99h37v-66.1c0-36.3.4-65.8.8-65.5s21.5 30 46.7 66l46 65.6h36.5V698h-38v132.2l-45.9-65.8-45.9-65.9-18.6-.3-18.6-.2zm219-82v17h65v164h38V732h65v-34h-168zm220 82v99h39v-80.2l25.3.4c29.1.4 32.5 1.2 41.8 9.6 7.9 7.1 9.6 10.6 21 41.6l10.4 28.6h20.9c19.4 0 20.8-.1 20.3-1.8-1.8-6.3-24.4-63.8-27-68.6-1.8-3.3-6-8.9-9.4-12.5a82 82 0 0 1-6-6.7l5.6-3a57 57 0 0 0 25.3-29 69 69 0 0 0-.6-38.4c-8.1-21.6-24.1-33.6-48.9-37-4.7-.6-30.2-1-62.8-1H2969zm113.7-64.6c11.3 4 16.2 11.1 16.3 23.4 0 14.5-6.7 22.4-21.5 25.1-3.4.7-19 1.1-37.7 1.1H3008v-52.2l34.8.4c30.4.4 35.3.6 39.9 2.2M3455 797v99h134v-34h-96V698h-38z"/><path fill="#860808" d="M2929.7 3.6c-26.7 7.3-86.6 33.3-130.1 56.5-57.2 30.5-97 59.3-111.1 80.4l-4 6-.3 64.7c-.2 44.7.1 64.8.8 64.8.6 0 21.9-13.9 47.3-30.9 64.5-43.1 81.3-53.3 110.7-67.4 63.7-30.7 108.2-33.2 168.1-9.6 36.1 14.3 65.8 31.2 141.1 80.6 22.9 15 41.9 27.3 42.2 27.3s.6-28.7.6-63.8v-63.7l-2.9-5c-19.4-33.6-115.4-93.4-209.6-130.7-30.7-12.1-37.8-13.4-52.8-9.2"/></svg>